<svg id="visual" viewBox="0 0 900 900" width="900" height="900" xmlns="http://www.w3.org/2000/svg" xmlns:xlink="http://www.w3.org/1999/xlink" version="1.1"><rect x="0" y="0" width="900" height="900" fill="#000000"></rect><path d="M0 416L129 416L129 575L257 575L257 462L386 462L386 548L514 548L514 422L643 422L643 463L771 463L771 525L900 525L900 467L900 901L900 901L771 901L771 901L643 901L643 901L514 901L514 901L386 901L386 901L257 901L257 901L129 901L129 901L0 901Z" fill="#727272"></path><path d="M0 652L129 652L129 683L257 683L257 549L386 549L386 592L514 592L514 623L643 623L643 572L771 572L771 685L900 685L900 562L900 901L900 901L771 901L771 901L643 901L643 901L514 901L514 901L386 901L386 901L257 901L257 901L129 901L129 901L0 901Z" fill="#b6b6b6"></path><path d="M0 730L129 730L129 680L257 680L257 663L386 663L386 668L514 668L514 687L643 687L643 737L771 737L771 667L900 667L900 738L900 901L900 901L771 901L771 901L643 901L643 901L514 901L514 901L386 901L386 901L257 901L257 901L129 901L129 901L0 901Z" fill="#ffffff"></path></svg>
